#!OML:ASF X:\für Bonn\!DataBase\2005_08_10_Bjorn_Final\c3d\bjorn.ASF
:FULLY-SPECIFIED
:DEGREES
211
root -0.883817 18.1053 7.52013 -176.52 1.01256 179.025
lowerback -5.62083 -1.77832 3.29074
upperback 8.22886 -2.34698 0.77177
thorax 11.9201 -0.658849 -1.32768
lowerneck -1.03565 1.32914 -0.726207
upperneck 12.964 3.28774 -5.54849
head 4.57895 1.64017 -1.58918
rclavicle 9.93923e-016 0
rhumerus -31.041 -21.1493 -83.3385
rradius 21.9018
rwrist 5.29778
rhand -12.752 15.4587
rfingers 7.12502
rthumb 13.3323 -14.0948
lclavicle 9.93923e-016 0
lhumerus -399.08 -41.0519 -261.605
lradius 50.3572
lwrist -3.80313
lhand -46.4288 -22.0903
lfingers 7.12502
lthumb -19.1581 6.98614
rfemur -48.8367 1.1661 10.258
rtibia 51.6287
rfoot -7.19109 11.9032
rtoes -19.1023
lfemur 2.51261 6.0595 -18.8477
ltibia 30.1037
lfoot -30.6697 -3.27009
ltoes -17.8615
212
root -0.856966 18.1165 7.4877 -176.245 0.711758 179.213
lowerback -5.99799 -1.75265 3.42422
upperback 7.94974 -2.3901 0.865181
thorax 11.8299 -0.694957 -1.32028
lowerneck -0.53237 1.25079 -0.62652
upperneck 13.0652 3.20425 -5.51565
head 4.51445 1.62652 -1.60189
rclavicle 3.57812e-015 -3.97569e-015
rhumerus -31.07 -20.4079 -83.394
rradius 22.083
rwrist 4.81623
rhand -12.6673 14.9814
rfingers 7.12502
rthumb 13.4139 -14.5667
lclavicle 3.57812e-015 -3.97569e-015
lhumerus -399.284 -41.7553 -261.362
lradius 50.9948
lwrist -3.84864
lhand -46.3947 -22.1709
lfingers 7.12502
lthumb -19.1253 6.9087
rfemur -48.9077 1.25533 10.2021
rtibia 51.7323
rfoot -7.39092 11.5947
rtoes -18.6391
lfemur 2.41832 6.16512 -18.4199
ltibia 29.836
lfoot -30.545 -3.85945
ltoes -17.5549
213
root -0.828378 18.1234 7.45337 -176.057 0.448639 179.294
lowerback -6.31323 -1.72281 3.42683
upperback 7.71908 -2.40002 0.934978
thorax 11.7624 -0.721007 -1.25824
lowerneck -0.0158211 1.17346 -0.556024
upperneck 13.0705 3.10692 -5.4598
head 4.41092 1.60451 -1.60126
rclavicle 1.05356e-014 -1.19271e-015
rhumerus -31.0493 -19.5532 -83.4974
rradius 22.2767
rwrist 4.24677
rhand -12.6121 14.6335
rfingers 7.12502
rthumb 13.4671 -14.9111
lclavicle 1.05356e-014 -1.19271e-015
lhumerus -399.469 -42.4672 -261.181
lradius 51.7219
lwrist -3.90693
lhand -46.3604 -22.1897
lfingers 7.12502
lthumb -19.0923 6.89323
rfemur -48.9127 1.37448 10.0238
rtibia 51.891
rfoot -7.69505 11.3044
rtoes -18.338
lfemur 2.4369 6.26585 -18.1091
ltibia 29.5654
lfoot -30.4385 -4.44202
ltoes -17.1956
214
root -0.798569 18.1253 7.41856 -175.898 0.20519 179.374
lowerback -6.59447 -1.69119 3.43862
upperback 7.51036 -2.40166 0.99256
thorax 11.6989 -0.739333 -1.212
lowerneck 0.566114 1.11792 -0.56826
upperneck 12.9241 3.00484 -5.29487
head 4.2354 1.57887 -1.54805
rclavicle 2.84262e-014 -2.82274e-014
rhumerus -31.0216 -18.8011 -83.5598
rradius 22.4537
rwrist 3.85574
rhand -12.4559 14.4139
rfingers 7.12502
rthumb 13.6177 -15.1207
lclavicle 2.84262e-014 -2.82274e-014
lhumerus -399.667 -43.1841 -261.066
lradius 52.549
lwrist -3.90192
lhand -46.3171 -22.1538
lfingers 7.12502
lthumb -19.0506 6.93318
rfemur -48.9079 1.54163 9.83059
rtibia 52.0967
rfoot -8.00214 11.0255
rtoes -17.9523
lfemur 2.49067 6.37617 -17.793
ltibia 29.2989
lfoot -30.3535 -4.99512
ltoes -16.8488
215
root -0.768022 18.1239 7.38257 -175.748 0.00130006 179.442
lowerback -6.86402 -1.15976 3.35107
upperback 7.3131 -2.51552 1.12069
thorax 11.666 -1.1503 -1.1214
lowerneck 1.12969 1.09367 -0.654902
upperneck 12.6816 2.92654 -5.08545
head 4.02902 1.55972 -1.46552
rclavicle 1.49089e-014 -2.70347e-014
rhumerus -30.9593 -17.9835 -83.5942
rradius 22.6336
rwrist 3.59686
rhand -12.314 14.2979
rfingers 7.12502
rthumb 13.7544 -15.2274
lclavicle 1.49089e-014 -2.70347e-014
lhumerus -399.79 -43.8127 -261
lradius 53.4051
lwrist -3.94321
lhand -46.181 -21.9953
lfingers 7.12502
lthumb -18.9198 7.10457
rfemur -48.9143 1.72913 9.63439
rtibia 52.3344
rfoot -8.37305 10.7758
rtoes -17.9923
lfemur 2.55169 6.49575 -17.4961
ltibia 29.0612
lfoot -30.2773 -5.4923
ltoes -16.6232
216
root -0.736905 18.1176 7.34519 -175.648 -0.177693 179.457
lowerback -7.09441 -1.14875 3.30034
upperback 7.16293 -2.4788 1.15687
thorax 11.6396 -1.13021 -1.05124
lowerneck 1.5222 1.06483 -0.716165
upperneck 12.5355 2.85041 -4.87055
head 3.89257 1.53764 -1.38585
rclavicle -9.54166e-015 -7.95139e-016
rhumerus -30.884 -17.2749 -83.6192
rradius 22.7848
rwrist 3.47276
rhand -12.1576 14.3354
rfingers 7.12502
rthumb 13.9051 -15.1797
lclavicle -9.54166e-015 -7.95139e-016
lhumerus -399.85 -44.462 -261.011
lradius 54.273
lwrist -3.92338
lhand -45.9664 -21.8521
lfingers 7.12502
lthumb -18.7134 7.26779
rfemur -48.8831 1.88389 9.40027
rtibia 52.601
rfoot -8.71694 10.5988
rtoes -18.1071
lfemur 2.65208 6.62015 -17.2557
ltibia 28.8713
lfoot -30.2611 -5.97252
ltoes -16.3137
